STARTFONT 2.1
FONT -FontForge-Untitled1-Regular-R-Normal--9-90-75-75-C-90-ISO10646-1
SIZE 9 75 75
FONTBOUNDINGBOX 9 9 0 -1
COMMENT "Generated by fontforge, http://fontforge.sourceforge.net"
COMMENT "Copyright (c) 2020, DELL"
STARTPROPERTIES 27
FOUNDRY "FontForge"
FAMILY_NAME "Untitled1"
WEIGHT_NAME "Regular"
SLANT "R"
SETWIDTH_NAME "Normal"
ADD_STYLE_NAME ""
PIXEL_SIZE 9
POINT_SIZE 90
RESOLUTION_X 75
RESOLUTION_Y 75
SPACING "C"
AVERAGE_WIDTH 90
CHARSET_REGISTRY "ISO10646"
CHARSET_ENCODING "1"
FONTNAME_REGISTRY ""
CHARSET_COLLECTIONS "ISO10646-1"
FONT_NAME "Untitled1"
FACE_NAME "Untitled1"
COPYRIGHT "Copyright (c) 2020, DELL"
FONT_VERSION "001.000"
FONT_ASCENT 7
FONT_DESCENT 2
UNDERLINE_POSITION -1
UNDERLINE_THICKNESS 1
RAW_ASCENT 800
RAW_DESCENT 200
FIGURE_WIDTH -1
ENDPROPERTIES
CHARS 392
STARTCHAR uni4E00
ENCODING 19968
SWIDTH 1000 0
DWIDTH 9 0
BBX 7 1 1 3
BITMAP
FE
ENDCHAR
STARTCHAR uni4E01
ENCODING 19969
SWIDTH 1000 0
DWIDTH 9 0
BBX 7 9 1 -1
BITMAP
10
6C
82
92
10
10
10
10
10
ENDCHAR
STARTCHAR uni4E02
ENCODING 19970
SWIDTH 1000 0
DWIDTH 9 0
BBX 9 9 0 -1
BITMAP
FF80
0800
0C00
0200
0200
0200
0400
0400
1800
ENDCHAR
STARTCHAR uni4E03
ENCODING 19971
SWIDTH 1000 0
DWIDTH 9 0
BBX 9 9 0 -1
BITMAP
0800
0800
0800
FF80
0800
0800
0C00
0200
0200
ENDCHAR
STARTCHAR uni4E04
ENCODING 19972
SWIDTH 1000 0
DWIDTH 9 0
BBX 9 9 0 -1
BITMAP
0800
0800
0800
0800
0800
0800
0800
0800
FF80
ENDCHAR
STARTCHAR uni4E05
ENCODING 19973
SWIDTH 1000 0
DWIDTH 9 0
BBX 9 9 0 -1
BITMAP
FF80
0800
0800
0800
0800
0800
0800
0800
0800
ENDCHAR
STARTCHAR uni4E07
ENCODING 19975
SWIDTH 1000 0
DWIDTH 9 0
BBX 9 9 0 -1
BITMAP
FF80
0800
0C00
0A00
1200
6200
0200
0400
1800
ENDCHAR
STARTCHAR uni4E08
ENCODING 19976
SWIDTH 1000 0
DWIDTH 9 0
BBX 9 9 0 -1
BITMAP
0800
FF80
0800
7E00
0100
7D00
0200
7D00
0080
ENDCHAR
STARTCHAR uni4E09
ENCODING 19977
SWIDTH 1000 0
DWIDTH 9 0
BBX 7 8 1 -1
BITMAP
FE
00
00
FE
00
00
00
FE
ENDCHAR
STARTCHAR uni4E0A
ENCODING 19978
SWIDTH 1000 0
DWIDTH 9 0
BBX 9 9 0 -1
BITMAP
1000
0800
0800
0800
0800
0800
1E00
1000
FF80
ENDCHAR
STARTCHAR uni4E0B
ENCODING 19979
SWIDTH 1000 0
DWIDTH 9 0
BBX 9 9 0 -1
BITMAP
FF80
1000
0800
0C00
1200
1000
1000
1000
0800
ENDCHAR
STARTCHAR uni4E0C
ENCODING 19980
SWIDTH 1000 0
DWIDTH 9 0
BBX 9 9 0 -1
BITMAP
FF80
1400
1400
1400
1400
1400
1400
2200
2200
ENDCHAR
STARTCHAR uni4E0D
ENCODING 19981
SWIDTH 1000 0
DWIDTH 9 0
BBX 9 9 0 -1
BITMAP
FF80
2200
3E00
0800
1C00
2A00
2A00
2A00
2A00
ENDCHAR
STARTCHAR uni4E0E
ENCODING 19982
SWIDTH 1000 0
DWIDTH 9 0
BBX 7 9 1 -1
BITMAP
40
7E
40
78
04
F4
04
18
20
ENDCHAR
STARTCHAR uni4E0F
ENCODING 19983
SWIDTH 1000 0
DWIDTH 9 0
BBX 9 9 0 -1
BITMAP
FF80
0800
2E00
2900
3D00
0100
0E00
1000
2000
ENDCHAR
STARTCHAR uni4E10
ENCODING 19984
SWIDTH 1000 0
DWIDTH 9 0
BBX 9 9 0 -1
BITMAP
0800
7F00
A880
B680
A080
BE80
8080
6700
0800
ENDCHAR
STARTCHAR uni4E11
ENCODING 19985
SWIDTH 1000 0
DWIDTH 9 0
BBX 7 9 1 -1
BITMAP
FC
12
FA
24
FA
02
02
02
02
ENDCHAR
STARTCHAR uni4E13
ENCODING 19987
SWIDTH 1000 0
DWIDTH 9 0
BBX 9 9 0 -1
BITMAP
A800
7700
F880
AE80
F900
AE80
F880
5680
7080
ENDCHAR
STARTCHAR uni4E14
ENCODING 19988
SWIDTH 1000 0
DWIDTH 9 0
BBX 9 9 0 -1
BITMAP
3E00
2200
2200
3E00
2200
3E00
2200
2200
FF80
ENDCHAR
STARTCHAR uni4E15
ENCODING 19989
SWIDTH 1000 0
DWIDTH 9 0
BBX 9 9 0 -1
BITMAP
FF80
2200
3E00
0800
3E00
4900
5D00
4100
4100
ENDCHAR
STARTCHAR uni4E16
ENCODING 19990
SWIDTH 1000 0
DWIDTH 9 0
BBX 9 9 0 -1
BITMAP
0900
4B80
4900
5D00
4900
E900
4E00
4800
3F00
ENDCHAR
STARTCHAR uni4E18
ENCODING 19992
SWIDTH 1000 0
DWIDTH 9 0
BBX 9 9 0 -1
BITMAP
6300
1400
3600
5500
5500
5500
5500
1400
FF80
ENDCHAR
STARTCHAR uni4E19
ENCODING 19993
SWIDTH 1000 0
DWIDTH 9 0
BBX 9 9 0 -1
BITMAP
FF80
0800
3E00
4900
7700
4100
4100
4100
4100
ENDCHAR
STARTCHAR uni4E1A
ENCODING 19994
SWIDTH 1000 0
DWIDTH 9 0
BBX 9 9 0 -1
BITMAP
5500
FF80
1400
4900
3E00
0800
FF80
2A00
4900
ENDCHAR
STARTCHAR uni4E1B
ENCODING 19995
SWIDTH 1000 0
DWIDTH 9 0
BBX 9 9 0 -1
BITMAP
5500
FF80
2A00
FF80
5600
7100
5700
7100
1680
ENDCHAR
STARTCHAR uni4E1C
ENCODING 19996
SWIDTH 1000 0
DWIDTH 9 0
BBX 7 9 1 -1
BITMAP
92
7C
38
54
7C
54
38
54
92
ENDCHAR
STARTCHAR uni4E1D
ENCODING 19997
SWIDTH 1000 0
DWIDTH 9 0
BBX 9 9 0 -1
BITMAP
2200
5500
7700
2200
5500
7700
2200
AA80
AA80
ENDCHAR
STARTCHAR uni4E1E
ENCODING 19998
SWIDTH 1000 0
DWIDTH 9 0
BBX 9 9 0 -1
BITMAP
3E00
0A00
6D00
8880
EB80
8880
AA80
B680
9C80
ENDCHAR
STARTCHAR uni4E1F
ENCODING 19999
SWIDTH 1000 0
DWIDTH 9 0
BBX 9 9 0 -1
BITMAP
FF80
0800
7F00
0800
3600
4100
5500
5500
1C00
ENDCHAR
STARTCHAR uni4E20
ENCODING 20000
SWIDTH 1000 0
DWIDTH 9 0
BBX 9 9 0 -1
BITMAP
6300
1400
3600
5500
5500
5500
5500
1400
FF80
ENDCHAR
STARTCHAR uni4E21
ENCODING 20001
SWIDTH 1000 0
DWIDTH 9 0
BBX 9 9 0 -1
BITMAP
FF80
0800
7F00
AA80
AA80
DD80
8880
8880
8880
ENDCHAR
STARTCHAR uni4E23
ENCODING 20003
SWIDTH 1000 0
DWIDTH 9 0
BBX 9 9 0 -1
BITMAP
FF80
1400
5500
7700
5500
3600
1400
1400
2200
ENDCHAR
STARTCHAR uni4E24
ENCODING 20004
SWIDTH 1000 0
DWIDTH 9 0
BBX 9 9 0 -1
BITMAP
FF80
0800
7F00
AA80
AA80
DD80
8880
8880
8880
ENDCHAR
STARTCHAR uni4E25
ENCODING 20005
SWIDTH 1000 0
DWIDTH 9 0
BBX 9 9 0 -1
BITMAP
7700
5500
FF80
8300
B880
9380
FC80
AB80
B880
ENDCHAR
STARTCHAR uni4E26
ENCODING 20006
SWIDTH 1000 0
DWIDTH 9 0
BBX 9 9 0 -1
BITMAP
2200
7700
DD80
5500
5500
5500
5500
5500
FF80
ENDCHAR
STARTCHAR uni4E27
ENCODING 20007
SWIDTH 1000 0
DWIDTH 9 0
BBX 9 9 0 -1
BITMAP
0900
FF80
AA80
EB80
0800
F700
3C80
2080
1C80
ENDCHAR
STARTCHAR uni4E28
ENCODING 20008
SWIDTH 1000 0
DWIDTH 9 0
BBX 1 9 4 -1
BITMAP
80
80
80
80
80
80
80
80
80
ENDCHAR
STARTCHAR uni4E29
ENCODING 20009
SWIDTH 1000 0
DWIDTH 9 0
BBX 5 9 2 -1
BITMAP
10
70
80
B0
88
68
08
70
40
ENDCHAR
STARTCHAR uni4E2A
ENCODING 20010
SWIDTH 1000 0
DWIDTH 9 0
BBX 9 9 0 -1
BITMAP
7700
AA80
7F00
4900
7F00
4900
5500
5D00
3E00
ENDCHAR
STARTCHAR uni4E2B
ENCODING 20011
SWIDTH 1000 0
DWIDTH 9 0
BBX 7 9 1 -1
BITMAP
C6
28
10
10
10
10
10
10
10
ENDCHAR
STARTCHAR uni4E2C
ENCODING 20012
SWIDTH 1000 0
DWIDTH 9 0
BBX 4 9 2 -1
BITMAP
10
90
F0
90
10
90
F0
90
10
ENDCHAR
STARTCHAR uni4E2D
ENCODING 20013
SWIDTH 1000 0
DWIDTH 9 0
BBX 7 9 1 -1
BITMAP
10
10
92
FE
92
7C
10
10
10
ENDCHAR
STARTCHAR uni4E2E
ENCODING 20014
SWIDTH 1000 0
DWIDTH 9 0
BBX 7 9 1 -1
BITMAP
FC
22
FA
22
FA
22
7C
80
7E
ENDCHAR
STARTCHAR uni4E2F
ENCODING 20015
SWIDTH 1000 0
DWIDTH 9 0
BBX 7 9 1 -1
BITMAP
10
1E
F0
1E
F0
1E
F0
10
10
ENDCHAR
STARTCHAR uni4E30
ENCODING 20016
SWIDTH 1000 0
DWIDTH 9 0
BBX 7 9 1 -1
BITMAP
54
54
38
10
FE
10
FE
10
10
ENDCHAR
STARTCHAR uni4E32
ENCODING 20018
SWIDTH 1000 0
DWIDTH 9 0
BBX 7 9 1 -1
BITMAP
10
7C
92
7C
10
7C
92
7C
10
ENDCHAR
STARTCHAR uni4E34
ENCODING 20020
SWIDTH 1000 0
DWIDTH 9 0
BBX 9 9 0 -1
BITMAP
F700
A480
A780
F500
9700
F000
AF80
AA80
FF80
ENDCHAR
STARTCHAR uni4E35
ENCODING 20021
SWIDTH 1000 0
DWIDTH 9 0
BBX 9 9 0 -1
BITMAP
5500
FF80
1400
4900
3E00
0800
FF80
0800
0800
ENDCHAR
STARTCHAR uni4E36
ENCODING 20022
SWIDTH 1000 0
DWIDTH 9 0
BBX 1 4 4 2
BITMAP
80
80
80
80
ENDCHAR
STARTCHAR uni4E38
ENCODING 20024
SWIDTH 1000 0
DWIDTH 9 0
BBX 7 9 1 -1
BITMAP
FC
0A
72
C2
A2
9A
82
82
7A
ENDCHAR
STARTCHAR uni4E39
ENCODING 20025
SWIDTH 1000 0
DWIDTH 9 0
BBX 7 9 1 -1
BITMAP
82
FE
82
82
BA
82
82
FE
82
ENDCHAR
STARTCHAR uni4E3A
ENCODING 20026
SWIDTH 1000 0
DWIDTH 9 0
BBX 9 9 0 -1
BITMAP
7E80
5480
FF00
8080
AF80
BA80
A000
BF80
AA80
ENDCHAR
STARTCHAR uni4E3B
ENCODING 20027
SWIDTH 1000 0
DWIDTH 9 0
BBX 7 9 1 -1
BITMAP
10
54
54
44
38
10
FE
10
FE
ENDCHAR
STARTCHAR uni4E3C
ENCODING 20028
SWIDTH 1000 0
DWIDTH 9 0
BBX 7 9 1 -1
BITMAP
44
44
FE
44
54
44
FE
44
44
ENDCHAR
STARTCHAR uni4E3D
ENCODING 20029
SWIDTH 1000 0
DWIDTH 9 0
BBX 9 9 0 -1
BITMAP
F780
5500
FF00
1480
7F00
A200
BB80
A200
9980
ENDCHAR
STARTCHAR uni4E3E
ENCODING 20030
SWIDTH 1000 0
DWIDTH 9 0
BBX 9 9 0 -1
BITMAP
CD80
9880
C580
1800
C980
9C80
C980
9C80
8880
ENDCHAR
STARTCHAR uni4E3F
ENCODING 20031
SWIDTH 1000 0
DWIDTH 9 0
BBX 3 9 3 -1
BITMAP
20
20
20
40
40
80
80
80
80
ENDCHAR
STARTCHAR uni4E40
ENCODING 20032
SWIDTH 1000 0
DWIDTH 9 0
BBX 3 9 3 -1
BITMAP
80
80
80
40
40
20
20
20
20
ENDCHAR
STARTCHAR uni4E41
ENCODING 20033
SWIDTH 1000 0
DWIDTH 9 0
BBX 7 9 1 -1
BITMAP
80
70
08
04
04
04
04
04
02
ENDCHAR
STARTCHAR uni4E42
ENCODING 20034
SWIDTH 1000 0
DWIDTH 9 0
BBX 7 9 1 -1
BITMAP
82
82
82
6C
10
6C
82
82
82
ENDCHAR
STARTCHAR uni4E43
ENCODING 20035
SWIDTH 1000 0
DWIDTH 9 0
BBX 7 9 1 -1
BITMAP
FE
02
1C
20
18
04
04
08
F0
ENDCHAR
STARTCHAR uni4E45
ENCODING 20037
SWIDTH 1000 0
DWIDTH 9 0
BBX 7 9 1 -1
BITMAP
02
FE
02
FC
10
08
08
04
02
ENDCHAR
STARTCHAR uni4E47
ENCODING 20039
SWIDTH 1000 0
DWIDTH 9 0
BBX 7 9 1 -1
BITMAP
10
30
50
10
FE
10
18
04
04
ENDCHAR
STARTCHAR uni4E48
ENCODING 20040
SWIDTH 1000 0
DWIDTH 9 0
BBX 3 8 3 0
BITMAP
40
E0
A0
E0
40
E0
A0
E0
ENDCHAR
STARTCHAR uni4E49
ENCODING 20041
SWIDTH 1000 0
DWIDTH 9 0
BBX 9 9 0 -1
BITMAP
2200
F780
1400
7F00
2A80
FF80
2200
F780
2100
ENDCHAR
STARTCHAR uni4E4B
ENCODING 20043
SWIDTH 1000 0
DWIDTH 9 0
BBX 9 9 0 -1
BITMAP
2A00
2A00
2A00
2A00
2A00
2A00
2E00
1800
FF80
ENDCHAR
STARTCHAR uni4E4C
ENCODING 20044
SWIDTH 1000 0
DWIDTH 9 0
BBX 9 9 0 -1
BITMAP
7E00
C200
7E00
4000
7F00
4080
3E00
3100
5100
ENDCHAR
STARTCHAR uni4E4D
ENCODING 20045
SWIDTH 1000 0
DWIDTH 9 0
BBX 7 9 1 -1
BITMAP
10
90
90
90
EE
80
FE
80
7E
ENDCHAR
STARTCHAR uni4E4E
ENCODING 20046
SWIDTH 1000 0
DWIDTH 9 0
BBX 9 9 0 -1
BITMAP
0100
7E00
2200
6B00
0800
FF80
0800
0800
1000
ENDCHAR
STARTCHAR uni4E4F
ENCODING 20047
SWIDTH 1000 0
DWIDTH 9 0
BBX 9 9 0 -1
BITMAP
FF80
0800
2A00
2A00
1A00
0A00
1C00
2000
2000
ENDCHAR
STARTCHAR uni4E50
ENCODING 20048
SWIDTH 1000 0
DWIDTH 9 0
BBX 9 9 0 -1
BITMAP
4900
B680
5D00
B680
5D00
8880
7F00
2A00
4900
ENDCHAR
STARTCHAR uni4E51
ENCODING 20049
SWIDTH 1000 0
DWIDTH 9 0
BBX 9 9 0 -1
BITMAP
DB00
2480
6D80
B680
A480
A480
A480
A480
A480
ENDCHAR
STARTCHAR uni4E52
ENCODING 20050
SWIDTH 1000 0
DWIDTH 9 0
BBX 9 9 0 -1
BITMAP
0300
0400
7480
8500
B500
4500
B500
8100
8100
ENDCHAR
STARTCHAR uni4E53
ENCODING 20051
SWIDTH 1000 0
DWIDTH 9 0
BBX 9 9 0 -1
BITMAP
6000
8000
9700
A080
A680
A100
A680
2080
2080
ENDCHAR
STARTCHAR uni4E54
ENCODING 20052
SWIDTH 1000 0
DWIDTH 9 0
BBX 9 9 0 -1
BITMAP
0400
7F00
0800
F780
1C00
1400
7F00
5500
5D00
ENDCHAR
STARTCHAR uni4E55
ENCODING 20053
SWIDTH 1000 0
DWIDTH 9 0
BBX 9 9 0 -1
BITMAP
BF00
A000
FF00
2100
7F80
8080
BC80
AA80
2A00
ENDCHAR
STARTCHAR uni4E56
ENCODING 20054
SWIDTH 1000 0
DWIDTH 9 0
BBX 9 9 0 -1
BITMAP
1400
F780
1400
4900
2A00
AA80
AA80
2A00
4900
ENDCHAR
STARTCHAR uni4E57
ENCODING 20055
SWIDTH 1000 0
DWIDTH 9 0
BBX 9 9 0 -1
BITMAP
0800
FF80
4900
F780
5500
EB80
4900
3E00
4900
ENDCHAR
STARTCHAR uni4E59
ENCODING 20057
SWIDTH 1000 0
DWIDTH 9 0
BBX 5 9 2 -1
BITMAP
E0
10
10
20
20
40
40
40
38
ENDCHAR
STARTCHAR uni4E5A
ENCODING 20058
SWIDTH 1000 0
DWIDTH 9 0
BBX 7 9 1 -1
BITMAP
80
40
40
40
40
40
20
1C
02
ENDCHAR
STARTCHAR uni4E5D
ENCODING 20061
SWIDTH 1000 0
DWIDTH 9 0
BBX 7 9 1 -1
BITMAP
40
3C
E2
22
4C
48
44
84
82
ENDCHAR
STARTCHAR uni4E5E
ENCODING 20062
SWIDTH 1000 0
DWIDTH 9 0
BBX 9 9 0 -1
BITMAP
8000
7F00
8000
7F00
8000
7E00
0100
0100
0080
ENDCHAR
STARTCHAR uni4E5F
ENCODING 20063
SWIDTH 1000 0
DWIDTH 9 0
BBX 9 9 0 -1
BITMAP
2200
1400
7F00
9480
9480
7700
1400
1800
0C00
ENDCHAR
STARTCHAR uni4E60
ENCODING 20064
SWIDTH 1000 0
DWIDTH 9 0
BBX 7 9 1 -1
BITMAP
EE
22
EE
22
EC
7C
7C
44
38
ENDCHAR
STARTCHAR uni4E61
ENCODING 20065
SWIDTH 1000 0
DWIDTH 9 0
BBX 9 9 0 -1
BITMAP
C980
D580
1C00
D580
9C80
C980
5D00
5100
8C80
ENDCHAR
STARTCHAR uni4E66
ENCODING 20070
SWIDTH 1000 0
DWIDTH 9 0
BBX 9 9 0 -1
BITMAP
0800
FF00
0880
FF80
1C80
AA00
7F00
A280
3E00
ENDCHAR
STARTCHAR uni4E69
ENCODING 20073
SWIDTH 1000 0
DWIDTH 9 0
BBX 9 9 0 -1
BITMAP
0400
0400
9400
F400
9780
9400
6400
0400
0400
ENDCHAR
STARTCHAR uni4E70
ENCODING 20080
SWIDTH 1000 0
DWIDTH 9 0
BBX 9 9 0 -1
BITMAP
7F00
AA80
D580
BE80
A280
BE80
A280
BE80
1400
ENDCHAR
STARTCHAR uni4E71
ENCODING 20081
SWIDTH 1000 0
DWIDTH 9 0
BBX 9 9 0 -1
BITMAP
FD00
A880
0080
B500
FD00
A500
B500
1100
6880
ENDCHAR
STARTCHAR uni4E73
ENCODING 20083
SWIDTH 1000 0
DWIDTH 9 0
BBX 9 9 0 -1
BITMAP
7D00
A880
0080
7900
4900
3100
9500
7900
1080
ENDCHAR
STARTCHAR uni4E7E
ENCODING 20094
SWIDTH 1000 0
DWIDTH 9 0
BBX 9 9 0 -1
BITMAP
A900
FB80
2000
FB00
8900
7100
2100
F900
2080
ENDCHAR
STARTCHAR uni4E85
ENCODING 20101
SWIDTH 1000 0
DWIDTH 9 0
BBX 6 9 1 -1
BITMAP
10
10
10
10
88
44
44
44
38
ENDCHAR
STARTCHAR uni4E86
ENCODING 20102
SWIDTH 1000 0
DWIDTH 9 0
BBX 7 9 1 -1
BITMAP
7C
82
82
7C
10
10
10
10
20
ENDCHAR
STARTCHAR uni4E88
ENCODING 20104
SWIDTH 1000 0
DWIDTH 9 0
BBX 7 9 1 -1
BITMAP
7C
82
BA
44
BA
82
7C
10
20
ENDCHAR
STARTCHAR uni4E89
ENCODING 20105
SWIDTH 1000 0
DWIDTH 9 0
BBX 9 9 0 -1
BITMAP
1F00
2A00
7E00
0900
FF80
0900
7E00
0800
1000
ENDCHAR
STARTCHAR uni4E8A
ENCODING 20106
SWIDTH 1000 0
DWIDTH 9 0
BBX 9 9 0 -1
BITMAP
4900
7F00
2A00
7E00
0900
FF00
7E80
0880
1000
ENDCHAR
STARTCHAR uni4E8C
ENCODING 20108
SWIDTH 1000 0
DWIDTH 9 0
BBX 7 7 1 0
BITMAP
FE
00
00
00
00
00
FE
ENDCHAR
STARTCHAR uni4E8D
ENCODING 20109
SWIDTH 1000 0
DWIDTH 9 0
BBX 4 9 3 -1
BITMAP
70
80
F0
00
F0
80
60
10
10
ENDCHAR
STARTCHAR uni4E8E
ENCODING 20110
SWIDTH 1000 0
DWIDTH 9 0
BBX 7 9 1 -1
BITMAP
FE
10
FE
10
08
08
08
10
20
ENDCHAR
STARTCHAR uni4E91
ENCODING 20113
SWIDTH 1000 0
DWIDTH 9 0
BBX 7 9 1 -1
BITMAP
FE
00
FE
10
10
24
28
28
10
ENDCHAR
STARTCHAR uni4E92
ENCODING 20114
SWIDTH 1000 0
DWIDTH 9 0
BBX 7 9 1 -1
BITMAP
FE
10
20
38
28
38
08
10
FE
ENDCHAR
STARTCHAR uni4E93
ENCODING 20115
SWIDTH 1000 0
DWIDTH 9 0
BBX 7 9 1 -1
BITMAP
FE
00
FE
28
28
28
28
44
44
ENDCHAR
STARTCHAR uni4E94
ENCODING 20116
SWIDTH 1000 0
DWIDTH 9 0
BBX 7 9 1 -1
BITMAP
FE
44
44
28
10
28
44
44
FE
ENDCHAR
STARTCHAR uni4E95
ENCODING 20117
SWIDTH 1000 0
DWIDTH 9 0
BBX 7 9 1 -1
BITMAP
44
44
FE
44
54
44
FE
44
44
ENDCHAR
STARTCHAR uni4E96
ENCODING 20118
SWIDTH 1000 0
DWIDTH 9 0
BBX 7 9 1 -1
BITMAP
FE
00
FE
00
00
FE
00
00
FE
ENDCHAR
STARTCHAR uni4E98
ENCODING 20120
SWIDTH 1000 0
DWIDTH 9 0
BBX 9 9 0 -1
BITMAP
FF80
0000
3E00
5100
5F00
4000
3F00
0000
FF80
ENDCHAR
STARTCHAR uni4E99
ENCODING 20121
SWIDTH 1000 0
DWIDTH 9 0
BBX 9 9 0 -1
BITMAP
FF80
2000
3C00
2200
3E00
2200
3A00
2400
FF80
ENDCHAR
STARTCHAR uni4E9A
ENCODING 20122
SWIDTH 1000 0
DWIDTH 9 0
BBX 9 9 0 -1
BITMAP
FF80
2200
6300
4100
5D00
4100
6300
2200
FF80
ENDCHAR
STARTCHAR uni4E9B
ENCODING 20123
SWIDTH 1000 0
DWIDTH 9 0
BBX 9 9 0 -1
BITMAP
A980
AA80
B280
A280
7A80
0280
FA80
0200
F900
ENDCHAR
STARTCHAR uni4E9C
ENCODING 20124
SWIDTH 1000 0
DWIDTH 9 0
BBX 9 9 0 -1
BITMAP
FF80
2200
6300
4100
5D00
4100
6300
2200
FF80
ENDCHAR
STARTCHAR uni4E9F
ENCODING 20127
SWIDTH 1000 0
DWIDTH 9 0
BBX 9 9 0 -1
BITMAP
FF80
0800
F500
0480
E580
A880
EB80
0880
FF80
ENDCHAR
STARTCHAR uni4EA0
ENCODING 20128
SWIDTH 1000 0
DWIDTH 9 0
BBX 7 3 1 4
BITMAP
10
10
FE
ENDCHAR
STARTCHAR uni4EA1
ENCODING 20129
SWIDTH 1000 0
DWIDTH 9 0
BBX 7 9 1 -1
BITMAP
10
10
90
90
90
EE
80
80
7E
ENDCHAR
STARTCHAR uni4EA2
ENCODING 20130
SWIDTH 1000 0
DWIDTH 9 0
BBX 9 9 0 -1
BITMAP
0800
FF80
0000
1C00
1400
1400
1400
1400
2200
ENDCHAR
STARTCHAR uni4EA4
ENCODING 20132
SWIDTH 1000 0
DWIDTH 9 0
BBX 9 9 0 -1
BITMAP
0800
FF80
0800
1400
1400
0800
1400
2200
2200
ENDCHAR
STARTCHAR uni4EA5
ENCODING 20133
SWIDTH 1000 0
DWIDTH 9 0
BBX 9 9 0 -1
BITMAP
7F00
0000
FF80
0A00
5500
4500
3500
0500
7900
ENDCHAR
STARTCHAR uni4EA6
ENCODING 20134
SWIDTH 1000 0
DWIDTH 9 0
BBX 9 9 0 -1
BITMAP
0800
FF80
0800
2A00
2A00
C980
1400
1400
E380
ENDCHAR
STARTCHAR uni4EA7
ENCODING 20135
SWIDTH 1000 0
DWIDTH 9 0
BBX 9 9 0 -1
BITMAP
0800
7F00
2200
7F80
9500
8E00
BF80
8400
BF80
ENDCHAR
STARTCHAR uni4EA8
ENCODING 20136
SWIDTH 1000 0
DWIDTH 9 0
BBX 9 9 0 -1
BITMAP
0800
FF80
0000
1C00
5500
5D00
5500
3E00
0800
ENDCHAR
STARTCHAR uni4EA9
ENCODING 20137
SWIDTH 1000 0
DWIDTH 9 0
BBX 9 9 0 -1
BITMAP
0800
FF80
0800
FB80
A880
FB80
A900
F900
0880
ENDCHAR
STARTCHAR uni4EAB
ENCODING 20139
SWIDTH 1000 0
DWIDTH 9 0
BBX 9 9 0 -1
BITMAP
0800
FF80
1C00
2200
3E00
4100
7F00
4100
3E00
ENDCHAR
STARTCHAR uni4EAC
ENCODING 20140
SWIDTH 1000 0
DWIDTH 9 0
BBX 9 9 0 -1
BITMAP
0800
FF80
2200
3E00
2200
1C00
0800
3E00
4900
ENDCHAR
STARTCHAR uni4EAD
ENCODING 20141
SWIDTH 1000 0
DWIDTH 9 0
BBX 9 9 0 -1
BITMAP
0800
FF80
1400
3E00
4900
5D00
4900
4900
0800
ENDCHAR
STARTCHAR uni4EAE
ENCODING 20142
SWIDTH 1000 0
DWIDTH 9 0
BBX 9 9 0 -1
BITMAP
0800
FF80
1400
3E00
4100
5900
5500
1400
1400
ENDCHAR
STARTCHAR uni4EB1
ENCODING 20145
SWIDTH 1000 0
DWIDTH 9 0
BBX 9 9 0 -1
BITMAP
0800
FF80
0800
2F00
2A80
CA80
1780
1400
E380
ENDCHAR
STARTCHAR uni4EB2
ENCODING 20146
SWIDTH 1000 0
DWIDTH 9 0
BBX 9 9 0 -1
BITMAP
FB00
5480
7780
2480
FF80
2480
7300
AD00
A980
ENDCHAR
STARTCHAR uni4EB3
ENCODING 20147
SWIDTH 1000 0
DWIDTH 9 0
BBX 9 9 0 -1
BITMAP
0800
FF80
1400
3E00
4100
5900
4900
5D00
0800
ENDCHAR
STARTCHAR uni4EB5
ENCODING 20149
SWIDTH 1000 0
DWIDTH 9 0
BBX 9 9 0 -1
BITMAP
0800
FF80
2E00
7500
2F00
7580
0000
F780
1E00
ENDCHAR
STARTCHAR uni4EB6
ENCODING 20150
SWIDTH 1000 0
DWIDTH 9 0
BBX 9 9 0 -1
BITMAP
0800
FF80
5D00
5500
7F00
2200
3E00
2200
FF80
ENDCHAR
STARTCHAR uni4EB7
ENCODING 20151
SWIDTH 1000 0
DWIDTH 9 0
BBX 9 9 0 -1
BITMAP
0800
7F80
D500
BE00
9500
FF80
9500
BE00
D500
ENDCHAR
STARTCHAR uni4EB8
ENCODING 20152
SWIDTH 1000 0
DWIDTH 9 0
BBX 9 9 0 -1
BITMAP
2500
FF80
6A80
FF80
9A80
6F80
9200
6F80
2200
ENDCHAR
STARTCHAR uni4EB9
ENCODING 20153
SWIDTH 1000 0
DWIDTH 9 0
BBX 9 9 0 -1
BITMAP
0800
FF80
5D00
5500
FF80
A280
3E00
2200
FF80
ENDCHAR
STARTCHAR uni4EBA
ENCODING 20154
SWIDTH 1000 0
DWIDTH 9 0
BBX 7 9 1 -1
BITMAP
60
8E
72
22
2C
48
48
84
82
ENDCHAR
STARTCHAR uni4EBB
ENCODING 20155
SWIDTH 1000 0
DWIDTH 9 0
BBX 4 9 2 -1
BITMAP
E0
10
70
90
90
90
90
90
90
ENDCHAR
STARTCHAR uni4EBC
ENCODING 20156
SWIDTH 1000 0
DWIDTH 9 0
BBX 7 9 1 -1
BITMAP
10
10
10
10
28
44
82
00
FE
ENDCHAR
STARTCHAR uni4EBE
ENCODING 20158
SWIDTH 1000 0
DWIDTH 9 0
BBX 7 9 1 -1
BITMAP
10
10
90
90
90
EE
80
80
7E
ENDCHAR
STARTCHAR uni4EBF
ENCODING 20159
SWIDTH 1000 0
DWIDTH 9 0
BBX 9 9 0 -1
BITMAP
8400
5F00
4A00
7F80
D100
5F00
6A80
5B00
4E00
ENDCHAR
STARTCHAR uni4EC0
ENCODING 20160
SWIDTH 1000 0
DWIDTH 9 0
BBX 9 9 0 -1
BITMAP
C200
2200
6200
A200
AF80
A200
A200
A200
A200
ENDCHAR
STARTCHAR uni4EC1
ENCODING 20161
SWIDTH 1000 0
DWIDTH 9 0
BBX 9 9 0 -1
BITMAP
C000
2000
6F80
A000
A000
A000
AF80
A000
A000
ENDCHAR
STARTCHAR uni4EC2
ENCODING 20162
SWIDTH 1000 0
DWIDTH 9 0
BBX 9 9 0 -1
BITMAP
C180
2200
6A80
AF80
AA80
AA80
AA80
A200
A400
ENDCHAR
STARTCHAR uni4EC3
ENCODING 20163
SWIDTH 1000 0
DWIDTH 9 0
BBX 9 9 0 -1
BITMAP
C200
2700
6880
AA80
A200
A200
A200
A200
A200
ENDCHAR
STARTCHAR uni4EC4
ENCODING 20164
SWIDTH 1000 0
DWIDTH 9 0
BBX 7 9 1 -1
BITMAP
7E
80
9C
82
8E
92
92
92
92
ENDCHAR
STARTCHAR uni4EC5
ENCODING 20165
SWIDTH 1000 0
DWIDTH 9 0
BBX 9 9 0 -1
BITMAP
C500
2F80
6500
AF80
AA80
A700
AF80
A200
AF80
ENDCHAR
STARTCHAR uni4EC6
ENCODING 20166
SWIDTH 1000 0
DWIDTH 9 0
BBX 9 9 0 -1
BITMAP
5500
BF80
8A00
8400
BF80
9500
AE80
9500
9500
ENDCHAR
STARTCHAR uni4EC7
ENCODING 20167
SWIDTH 1000 0
DWIDTH 9 0
BBX 9 9 0 -1
BITMAP
CC00
2400
6F80
A480
A480
A900
A900
A900
A880
ENDCHAR
STARTCHAR uni4EC9
ENCODING 20169
SWIDTH 1000 0
DWIDTH 9 0
BBX 9 9 0 -1
BITMAP
C700
2500
6500
A500
A500
A500
A500
A500
A880
ENDCHAR
STARTCHAR uni4ECA
ENCODING 20170
SWIDTH 1000 0
DWIDTH 9 0
BBX 9 9 0 -1
BITMAP
0800
1400
2200
DD80
0000
3E00
1000
1000
0800
ENDCHAR
STARTCHAR uni4ECB
ENCODING 20171
SWIDTH 1000 0
DWIDTH 9 0
BBX 9 9 0 -1
BITMAP
FE00
1100
2100
C600
0800
4900
4900
4900
8880
ENDCHAR
STARTCHAR uni4ECC
ENCODING 20172
SWIDTH 1000 0
DWIDTH 9 0
BBX 5 7 2 0
BITMAP
20
20
D8
00
20
20
D8
ENDCHAR
STARTCHAR uni4ECD
ENCODING 20173
SWIDTH 1000 0
DWIDTH 9 0
BBX 9 9 0 -1
BITMAP
CF80
2080
6700
A400
A300
A080
A080
A100
AE00
ENDCHAR
STARTCHAR uni4ECE
ENCODING 20174
SWIDTH 1000 0
DWIDTH 9 0
BBX 9 9 0 -1
BITMAP
E700
1080
7380
9480
9480
9480
9480
9480
9480
ENDCHAR
STARTCHAR uni4ED1
ENCODING 20177
SWIDTH 1000 0
DWIDTH 9 0
BBX 9 9 0 -1
BITMAP
0800
3600
C180
3E00
1400
7F00
5500
7F00
5500
ENDCHAR
STARTCHAR uni4ED3
ENCODING 20179
SWIDTH 1000 0
DWIDTH 9 0
BBX 9 9 0 -1
BITMAP
1C00
2200
7D00
A280
3E00
2200
3F00
2900
4F00
ENDCHAR
STARTCHAR uni4ED4
ENCODING 20180
SWIDTH 1000 0
DWIDTH 9 0
BBX 9 9 0 -1
BITMAP
CF80
2880
6500
A200
AA80
A700
A200
A200
A400
ENDCHAR
STARTCHAR uni4ED5
ENCODING 20181
SWIDTH 1000 0
DWIDTH 9 0
BBX 9 9 0 -1
BITMAP
C200
2200
6200
A200
A200
AF80
A200
AF80
A000
ENDCHAR
STARTCHAR uni4ED6
ENCODING 20182
SWIDTH 1000 0
DWIDTH 9 0
BBX 9 9 0 -1
BITMAP
9100
4A00
5F00
6A80
EA80
5B00
4A00
4C00
4700
ENDCHAR
STARTCHAR uni4ED7
ENCODING 20183
SWIDTH 1000 0
DWIDTH 9 0
BBX 9 9 0 -1
BITMAP
C200
2F80
6200
AF00
A080
AE80
A100
AE80
A080
ENDCHAR
STARTCHAR uni4ED8
ENCODING 20184
SWIDTH 1000 0
DWIDTH 9 0
BBX 9 9 0 -1
BITMAP
CF00
2080
6E80
A100
AE80
A080
AE80
A080
A080
ENDCHAR
STARTCHAR uni4ED9
ENCODING 20185
SWIDTH 1000 0
DWIDTH 9 0
BBX 9 9 0 -1
BITMAP
7C00
1200
2100
C880
0880
2A80
3680
2280
1C80
ENDCHAR
STARTCHAR uni4EDD
ENCODING 20189
SWIDTH 1000 0
DWIDTH 9 0
BBX 9 9 0 -1
BITMAP
7E00
1100
2080
C080
3E80
0880
0880
3E80
0080
ENDCHAR
STARTCHAR uni4EDE
ENCODING 20190
SWIDTH 1000 0
DWIDTH 9 0
BBX 9 9 0 -1
BITMAP
C700
2800
6F00
A280
AA80
AA80
A280
A480
A900
ENDCHAR
STARTCHAR uni4EDF
ENCODING 20191
SWIDTH 1000 0
DWIDTH 9 0
BBX 9 9 0 -1
BITMAP
CE00
2900
6B00
AA00
AF80
AA00
AA00
AA00
AA00
ENDCHAR
STARTCHAR uni4EE1
ENCODING 20193
SWIDTH 1000 0
DWIDTH 9 0
BBX 9 9 0 -1
BITMAP
C800
2700
6800
A700
A800
A600
A100
A100
A080
ENDCHAR
STARTCHAR uni4EE3
ENCODING 20195
SWIDTH 1000 0
DWIDTH 9 0
BBX 9 9 0 -1
BITMAP
C900
2E00
6880
A880
A500
A200
A500
A880
A880
ENDCHAR
STARTCHAR uni4EE4
ENCODING 20196
SWIDTH 1000 0
DWIDTH 9 0
BBX 9 9 0 -1
BITMAP
1C00
2200
5D00
8080
3E00
0A00
1C00
1000
0C00
ENDCHAR
STARTCHAR uni4EE5
ENCODING 20197
SWIDTH 1000 0
DWIDTH 9 0
BBX 9 9 0 -1
BITMAP
6700
1080
6380
8480
E480
9480
6480
0480
0480
ENDCHAR
STARTCHAR uni4EE8
ENCODING 20200
SWIDTH 1000 0
DWIDTH 9 0
BBX 9 9 0 -1
BITMAP
C000
2F80
6000
A000
AF80
A000
A000
AF80
A000
ENDCHAR
STARTCHAR uni4EEA
ENCODING 20202
SWIDTH 1000 0
DWIDTH 9 0
BBX 9 9 0 -1
BITMAP
C500
2F80
6200
AF80
A500
AF80
A500
AF80
A480
ENDCHAR
STARTCHAR uni4EEB
ENCODING 20203
SWIDTH 1000 0
DWIDTH 9 0
BBX 8 9 0 -1
BITMAP
C2
27
65
A7
A2
A7
A5
A7
A0
ENDCHAR
STARTCHAR uni4EEC
ENCODING 20204
SWIDTH 1000 0
DWIDTH 9 0
BBX 9 9 0 -1
BITMAP
CD80
2A80
6F80
AA80
AD80
A880
A880
A880
A880
ENDCHAR
STARTCHAR uni4EF0
ENCODING 20208
SWIDTH 1000 0
DWIDTH 9 0
BBX 9 9 0 -1
BITMAP
CF00
2280
6700
A400
A300
A880
AE80
A880
A680
ENDCHAR
STARTCHAR uni4EF2
ENCODING 20210
SWIDTH 1000 0
DWIDTH 9 0
BBX 9 9 0 -1
BITMAP
C200
2200
6A80
AF80
AA80
A700
A200
A200
A200
ENDCHAR
STARTCHAR uni4EF3
ENCODING 20211
SWIDTH 1000 0
DWIDTH 9 0
BBX 9 9 0 -1
BITMAP
8900
5200
5200
5B00
D680
5200
5200
5200
4D80
ENDCHAR
STARTCHAR uni4EF5
ENCODING 20213
SWIDTH 1000 0
DWIDTH 9 0
BBX 9 9 0 -1
BITMAP
C200
2700
6A80
A200
A200
AF80
A200
A200
A200
ENDCHAR
STARTCHAR uni4EF6
ENCODING 20214
SWIDTH 1000 0
DWIDTH 9 0
BBX 9 9 0 -1
BITMAP
CA80
2A80
6A80
AA80
A700
A200
AF80
A200
A200
ENDCHAR
STARTCHAR uni4EF7
ENCODING 20215
SWIDTH 1000 0
DWIDTH 9 0
BBX 9 9 0 -1
BITMAP
CF80
2500
6A80
A880
AF80
A700
A500
A700
A880
ENDCHAR
STARTCHAR uni4EFB
ENCODING 20219
SWIDTH 1000 0
DWIDTH 9 0
BBX 9 9 0 -1
BITMAP
C000
2700
6200
A200
AF80
A200
A200
A700
A000
ENDCHAR
STARTCHAR uni4EFF
ENCODING 20223
SWIDTH 1000 0
DWIDTH 9 0
BBX 9 9 0 -1
BITMAP
C980
2A00
6700
A280
A680
AA80
A280
A280
AC00
ENDCHAR
STARTCHAR uni4F01
ENCODING 20225
SWIDTH 1000 0
DWIDTH 9 0
BBX 9 9 0 -1
BITMAP
7C00
1200
2100
CA80
2A80
2C80
2880
1C80
0280
ENDCHAR
STARTCHAR uni4F09
ENCODING 20233
SWIDTH 1000 0
DWIDTH 9 0
BBX 9 9 0 -1
BITMAP
C200
2F80
6000
A700
A500
A500
A500
A500
A880
ENDCHAR
STARTCHAR uni4F0A
ENCODING 20234
SWIDTH 1000 0
DWIDTH 9 0
BBX 9 9 0 -1
BITMAP
CF00
2480
6E80
A500
AE80
A480
A480
A480
A400
ENDCHAR
STARTCHAR uni4F0D
ENCODING 20237
SWIDTH 1000 0
DWIDTH 9 0
BBX 9 9 0 -1
BITMAP
CF80
2500
6500
A500
A200
A500
A500
A500
AF80
ENDCHAR
STARTCHAR uni4F0E
ENCODING 20238
SWIDTH 1000 0
DWIDTH 9 0
BBX 9 9 0 -1
BITMAP
C200
2700
6A80
A200
AF00
A080
AE80
A100
AE80
ENDCHAR
STARTCHAR uni4F0F
ENCODING 20239
SWIDTH 1000 0
DWIDTH 9 0
BBX 9 9 0 -1
BITMAP
CC80
2280
6F80
B200
A700
A900
AA00
AA00
A980
ENDCHAR
STARTCHAR uni4F10
ENCODING 20240
SWIDTH 1000 0
DWIDTH 9 0
BBX 9 9 0 -1
BITMAP
C500
2500
6F80
A400
A580
A600
AA00
A900
A880
ENDCHAR
STARTCHAR uni4F11
ENCODING 20241
SWIDTH 1000 0
DWIDTH 9 0
BBX 9 9 0 -1
BITMAP
CA80
2A80
6700
A200
A700
AA80
AA80
AA80
AA80
ENDCHAR
STARTCHAR uni4F18
ENCODING 20248
SWIDTH 1000 0
DWIDTH 9 0
BBX 9 9 0 -1
BITMAP
9F00
4A00
4E00
CA00
5F00
6080
4A00
5B00
4E00
ENDCHAR
STARTCHAR uni4F19
ENCODING 20249
SWIDTH 1000 0
DWIDTH 9 0
BBX 9 9 0 -1
BITMAP
7700
AA80
FA80
AB00
7400
AB00
7280
AA80
AF00
ENDCHAR
STARTCHAR uni4F1A
ENCODING 20250
SWIDTH 1000 0
DWIDTH 9 0
BBX 9 9 0 -1
BITMAP
1C00
2200
FF80
5500
7F00
2200
3E00
2200
1C00
ENDCHAR
STARTCHAR uni4F1B
ENCODING 20251
SWIDTH 1000 0
DWIDTH 9 0
BBX 9 9 0 -1
BITMAP
8F80
5500
5700
5000
DF80
5A80
5500
5000
4F80
ENDCHAR
STARTCHAR uni4F1E
ENCODING 20254
SWIDTH 1000 0
DWIDTH 9 0
BBX 9 9 0 -1
BITMAP
5580
BF00
5580
BE80
E180
5E80
EB80
CA80
5C80
ENDCHAR
STARTCHAR uni4F1F
ENCODING 20255
SWIDTH 1000 0
DWIDTH 9 0
BBX 9 9 0 -1
BITMAP
C280
2F80
6280
AF00
A880
A700
AA00
AF80
A200
ENDCHAR
STARTCHAR uni4F20
ENCODING 20256
SWIDTH 1000 0
DWIDTH 9 0
BBX 9 9 0 -1
BITMAP
CA80
2700
6A80
AF80
AA80
A700
A080
AF00
A480
ENDCHAR
STARTCHAR uni4F22
ENCODING 20258
SWIDTH 1000 0
DWIDTH 9 0
BBX 9 9 0 -1
BITMAP
C400
2780
6400
A700
A480
A780
A080
A780
A880
ENDCHAR
STARTCHAR uni4F24
ENCODING 20260
SWIDTH 1000 0
DWIDTH 9 0
BBX 9 9 0 -1
BITMAP
8400
5F80
4900
4F00
C900
5F80
4400
5F80
4A80
ENDCHAR
STARTCHAR uni4F25
ENCODING 20261
SWIDTH 1000 0
DWIDTH 9 0
BBX 9 9 0 -1
BITMAP
8F80
4800
4F80
4800
DF80
4980
5C80
4900
5D80
ENDCHAR
STARTCHAR uni4F26
ENCODING 20262
SWIDTH 1000 0
DWIDTH 9 0
BBX 9 9 0 -1
BITMAP
4E00
9100
AE80
8000
AA80
BF80
AA80
BF80
AA80
ENDCHAR
STARTCHAR uni4F27
ENCODING 20263
SWIDTH 1000 0
DWIDTH 9 0
BBX 9 9 0 -1
BITMAP
8E00
5100
6E80
4900
CF00
4900
4F80
5480
6780
ENDCHAR
STARTCHAR uni4F2A
ENCODING 20266
SWIDTH 1000 0
DWIDTH 9 0
BBX 9 9 0 -1
BITMAP
5F80
9500
BF00
A080
AB80
AE80
A800
AF80
AA80
ENDCHAR
STARTCHAR uni4F2B
ENCODING 20267
SWIDTH 1000 0
DWIDTH 9 0
BBX 9 9 0 -1
BITMAP
C200
2A80
6F80
A880
A880
AF80
AA80
AA80
A200
ENDCHAR
STARTCHAR uni4F2F
ENCODING 20271
SWIDTH 1000 0
DWIDTH 9 0
BBX 9 9 0 -1
BITMAP
C200
2200
6200
A700
A880
AF80
A880
A700
A000
ENDCHAR
STARTCHAR uni4F30
ENCODING 20272
SWIDTH 1000 0
DWIDTH 9 0
BBX 9 9 0 -1
BITMAP
C200
2200
6200
AF80
A200
AA80
AF80
A880
A700
ENDCHAR
STARTCHAR uni4F31
ENCODING 20273
SWIDTH 1000 0
DWIDTH 9 0
BBX 9 9 0 -1
BITMAP
C200
2700
6A80
A200
A200
AA80
AA80
AA80
A200
ENDCHAR
STARTCHAR uni4F32
ENCODING 20274
SWIDTH 1000 0
DWIDTH 9 0
BBX 9 9 0 -1
BITMAP
CF00
2080
6F80
A900
AA00
AB00
AA80
AA00
A980
ENDCHAR
STARTCHAR uni4F34
ENCODING 20276
SWIDTH 1000 0
DWIDTH 9 0
BBX 9 9 0 -1
BITMAP
C500
2500
6D80
A000
AA80
A700
A200
AF80
A200
ENDCHAR
STARTCHAR uni4F36
ENCODING 20278
SWIDTH 1000 0
DWIDTH 9 0
BBX 9 9 0 -1
BITMAP
C600
2900
7680
A000
AF00
A480
AF00
A800
A700
ENDCHAR
STARTCHAR uni4F38
ENCODING 20280
SWIDTH 1000 0
DWIDTH 9 0
BBX 9 9 0 -1
BITMAP
C200
2A80
6F80
AA80
AF80
AA80
A700
A200
A200
ENDCHAR
STARTCHAR uni4F3A
ENCODING 20282
SWIDTH 1000 0
DWIDTH 9 0
BBX 9 9 0 -1
BITMAP
CF00
2080
6F80
A080
AA80
AE80
AA80
A480
A080
ENDCHAR
STARTCHAR uni4F3C
ENCODING 20284
SWIDTH 1000 0
DWIDTH 9 0
BBX 9 9 0 -1
BITMAP
C600
2100
6600
A800
AF00
A880
A700
A000
A000
ENDCHAR
STARTCHAR uni4F3D
ENCODING 20285
SWIDTH 1000 0
DWIDTH 9 0
BBX 9 9 0 -1
BITMAP
4600
8800
AA00
BE80
AB80
AA80
AB80
8800
9000
ENDCHAR
STARTCHAR uni4F43
ENCODING 20291
SWIDTH 1000 0
DWIDTH 9 0
BBX 9 9 0 -1
BITMAP
C000
2F80
6A80
AF80
AA80
AA80
A700
A000
A000
ENDCHAR
STARTCHAR uni4F46
ENCODING 20294
SWIDTH 1000 0
DWIDTH 9 0
BBX 9 9 0 -1
BITMAP
C000
2700
6880
AF80
A880
A700
A000
AF80
A000
ENDCHAR
STARTCHAR uni4F4D
ENCODING 20301
SWIDTH 1000 0
DWIDTH 9 0
BBX 9 9 0 -1
BITMAP
C200
2700
6D80
A500
A500
A500
A500
A500
AF80
ENDCHAR
STARTCHAR uni4F4E
ENCODING 20302
SWIDTH 1000 0
DWIDTH 9 0
BBX 9 9 0 -1
BITMAP
C100
2700
6A00
AF80
AA00
A900
A700
A100
AF80
ENDCHAR
STARTCHAR uni4F4F
ENCODING 20303
SWIDTH 1000 0
DWIDTH 9 0
BBX 9 9 0 -1
BITMAP
C200
2A80
6A80
A880
A700
A200
AF80
A200
AF80
ENDCHAR
STARTCHAR uni4F50
ENCODING 20304
SWIDTH 1000 0
DWIDTH 9 0
BBX 9 9 0 -1
BITMAP
C700
2800
6B80
A400
AB80
A800
AB80
A900
AB80
ENDCHAR
STARTCHAR uni4F51
ENCODING 20305
SWIDTH 1000 0
DWIDTH 9 0
BBX 9 9 0 -1
BITMAP
CF00
2080
6E80
A100
AE80
A080
AE80
AA80
AE80
ENDCHAR
STARTCHAR uni4F53
ENCODING 20307
SWIDTH 1000 0
DWIDTH 9 0
BBX 9 9 0 -1
BITMAP
7500
5F80
FA80
8F80
FA80
5F80
7700
5500
5F80
ENDCHAR
STARTCHAR uni4F55
ENCODING 20309
SWIDTH 1000 0
DWIDTH 9 0
BBX 9 9 0 -1
BITMAP
CF80
2080
6A80
AE80
AA80
AE80
A080
A700
A800
ENDCHAR
STARTCHAR uni4F57
ENCODING 20311
SWIDTH 1000 0
DWIDTH 9 0
BBX 9 9 0 -1
BITMAP
4400
9F00
A080
BB80
AA80
9B00
8A00
8C00
8700
ENDCHAR
STARTCHAR uni4F59
ENCODING 20313
SWIDTH 1000 0
DWIDTH 9 0
BBX 9 9 0 -1
BITMAP
1C00
2200
DD80
0800
2A00
1C00
0800
2A00
2A00
ENDCHAR
STARTCHAR uni4F5A
ENCODING 20314
SWIDTH 1000 0
DWIDTH 9 0
BBX 9 9 0 -1
BITMAP
C100
2A80
6700
A200
AF80
A500
A480
A900
A980
ENDCHAR
STARTCHAR uni4F5B
ENCODING 20315
SWIDTH 1000 0
DWIDTH 9 0
BBX 9 9 0 -1
BITMAP
CA00
3F80
6A80
BF80
AA00
BF80
AA80
AB00
AA00
ENDCHAR
STARTCHAR uni4F5C
ENCODING 20316
SWIDTH 1000 0
DWIDTH 9 0
BBX 9 9 0 -1
BITMAP
C200
2200
6A00
AD80
A800
AF80
A800
A780
A000
ENDCHAR
STARTCHAR uni4F5D
ENCODING 20317
SWIDTH 1000 0
DWIDTH 9 0
BBX 9 9 0 -1
BITMAP
8F00
5000
5700
5880
CE80
4A80
4E80
4080
5F00
ENDCHAR
STARTCHAR uni4F5E
ENCODING 20318
SWIDTH 1000 0
DWIDTH 9 0
BBX 9 9 0 -1
BITMAP
CF80
2000
6F80
A200
A780
AA80
AF00
AA00
A980
ENDCHAR
STARTCHAR uni4F5F
ENCODING 20319
SWIDTH 1000 0
DWIDTH 9 0
BBX 9 9 0 -1
BITMAP
C200
2700
6500
AF80
A500
A880
AA80
A880
AA80
ENDCHAR
STARTCHAR uni4F62
ENCODING 20322
SWIDTH 1000 0
DWIDTH 9 0
BBX 9 9 0 -1
BITMAP
CF80
2400
6400
A700
A500
A700
A400
A400
AF80
ENDCHAR
STARTCHAR uni4F63
ENCODING 20323
SWIDTH 1000 0
DWIDTH 9 0
BBX 9 9 0 -1
BITMAP
9B00
4E00
5500
DF00
6480
5F00
5500
5F00
5500
ENDCHAR
STARTCHAR uni4F64
ENCODING 20324
SWIDTH 1000 0
DWIDTH 9 0
BBX 9 9 0 -1
BITMAP
CF00
2100
6600
A900
AF00
A900
A700
A100
A080
ENDCHAR
STARTCHAR uni4F65
ENCODING 20325
SWIDTH 1000 0
DWIDTH 9 0
BBX 9 9 0 -1
BITMAP
1C00
6300
9C80
7700
5500
7700
4400
3300
5500
ENDCHAR
STARTCHAR uni4F67
ENCODING 20327
SWIDTH 1000 0
DWIDTH 9 0
BBX 9 9 0 -1
BITMAP
C400
2700
6400
AF80
A200
A500
A400
A400
A200
ENDCHAR
STARTCHAR uni4F69
ENCODING 20329
SWIDTH 1000 0
DWIDTH 9 0
BBX 9 9 0 -1
BITMAP
CF00
2880
6E80
A880
AA80
A200
A700
AA80
AA80
ENDCHAR
STARTCHAR uni4F6C
ENCODING 20332
SWIDTH 1000 0
DWIDTH 9 0
BBX 9 9 0 -1
BITMAP
9500
4E00
6480
5F00
C400
5B00
4080
5480
5E80
ENDCHAR
STARTCHAR uni4F6F
ENCODING 20335
SWIDTH 1000 0
DWIDTH 9 0
BBX 9 9 0 -1
BITMAP
C500
2D80
6700
A200
AF80
A200
AF80
A200
A200
ENDCHAR
STARTCHAR uni4F70
ENCODING 20336
SWIDTH 1000 0
DWIDTH 9 0
BBX 9 9 0 -1
BITMAP
CF80
2200
6A80
AF80
A880
AF80
A880
A700
A000
ENDCHAR
STARTCHAR uni4F73
ENCODING 20339
SWIDTH 1000 0
DWIDTH 9 0
BBX 9 9 0 -1
BITMAP
C200
2200
6F80
A200
AF80
A200
AF80
A200
AF80
ENDCHAR
STARTCHAR uni4F74
ENCODING 20340
SWIDTH 1000 0
DWIDTH 9 0
BBX 9 9 0 -1
BITMAP
C780
2800
6F00
A880
AF80
A880
A780
A080
A700
ENDCHAR
STARTCHAR uni4F76
ENCODING 20342
SWIDTH 1000 0
DWIDTH 9 0
BBX 9 9 0 -1
BITMAP
C200
2200
6F80
A200
AF80
A000
A700
A500
A700
ENDCHAR
STARTCHAR uni4F7B
ENCODING 20347
SWIDTH 1000 0
DWIDTH 9 0
BBX 9 9 0 -1
BITMAP
C280
2E80
6280
AC80
A300
A400
AB80
AA00
A980
ENDCHAR
STARTCHAR uni4F7C
ENCODING 20348
SWIDTH 1000 0
DWIDTH 9 0
BBX 9 9 0 -1
BITMAP
C200
2F80
6200
A500
A500
A200
A500
A880
A880
ENDCHAR
STARTCHAR uni4F7E
ENCODING 20350
SWIDTH 1000 0
DWIDTH 9 0
BBX 9 9 0 -1
BITMAP
C500
2D80
6000
A700
A880
AF80
A880
AF80
A880
ENDCHAR
STARTCHAR uni4F7F
ENCODING 20351
SWIDTH 1000 0
DWIDTH 9 0
BBX 9 9 0 -1
BITMAP
CA80
2700
6F80
AA80
AF80
A200
AF00
A100
AE80
ENDCHAR
STARTCHAR uni4F83
ENCODING 20355
SWIDTH 1000 0
DWIDTH 9 0
BBX 9 9 0 -1
BITMAP
C880
2F80
6880
A700
A000
AA80
AA80
AA80
AA80
ENDCHAR
STARTCHAR uni4F84
ENCODING 20356
SWIDTH 1000 0
DWIDTH 9 0
BBX 9 9 0 -1
BITMAP
CD80
2200
6500
A500
A200
AA80
A700
A200
AF80
ENDCHAR
STARTCHAR uni4F88
ENCODING 20360
SWIDTH 1000 0
DWIDTH 9 0
BBX 9 9 0 -1
BITMAP
C080
2F80
6280
AF00
A000
AF80
A280
A700
A800
ENDCHAR
STARTCHAR uni4F89
ENCODING 20361
SWIDTH 1000 0
DWIDTH 9 0
BBX 9 9 0 -1
BITMAP
C200
2F80
6500
A880
A700
A000
AF80
A200
A400
ENDCHAR
STARTCHAR uni4F8B
ENCODING 20363
SWIDTH 1000 0
DWIDTH 9 0
BBX 9 9 0 -1
BITMAP
AA80
6A80
4080
5C80
D580
5480
5C80
5480
5500
ENDCHAR
STARTCHAR uni4F8D
ENCODING 20365
SWIDTH 1000 0
DWIDTH 9 0
BBX 9 9 0 -1
BITMAP
CA80
2B00
7F80
A100
AC80
A280
AF00
A080
AE80
ENDCHAR
STARTCHAR uni4F8F
ENCODING 20367
SWIDTH 1000 0
DWIDTH 9 0
BBX 9 9 0 -1
BITMAP
CA80
2A80
6700
A200
AF80
A200
A700
AA80
AA80
ENDCHAR
STARTCHAR uni4F91
ENCODING 20369
SWIDTH 1000 0
DWIDTH 9 0
BBX 9 9 0 -1
BITMAP
9F00
4080
5E80
4100
DE80
4000
5F80
4A80
5F00
ENDCHAR
STARTCHAR uni4F94
ENCODING 20372
SWIDTH 1000 0
DWIDTH 9 0
BBX 9 9 0 -1
BITMAP
C200
2600
6500
A200
AA80
A700
A200
AF80
A200
ENDCHAR
STARTCHAR uni4F96
ENCODING 20374
SWIDTH 1000 0
DWIDTH 9 0
BBX 9 9 0 -1
BITMAP
0800
3600
C180
3E00
1400
7F00
5500
7F00
5500
ENDCHAR
STARTCHAR uni4F97
ENCODING 20375
SWIDTH 1000 0
DWIDTH 9 0
BBX 9 9 0 -1
BITMAP
C880
2F80
6880
AF80
A880
AF80
AD80
AF80
A880
ENDCHAR
STARTCHAR uni4F9B
ENCODING 20379
SWIDTH 1000 0
DWIDTH 9 0
BBX 9 9 0 -1
BITMAP
5100
BF80
9100
8E00
9100
AA80
B180
9B00
9100
ENDCHAR
STARTCHAR uni4F9D
ENCODING 20381
SWIDTH 1000 0
DWIDTH 9 0
BBX 9 9 0 -1
BITMAP
C200
2F80
6000
AD80
A500
A500
A500
A600
A380
ENDCHAR
STARTCHAR uni4FA0
ENCODING 20384
SWIDTH 1000 0
DWIDTH 9 0
BBX 9 9 0 -1
BITMAP
4400
BF80
8400
A480
B580
A480
B580
8A00
B180
ENDCHAR
STARTCHAR uni4FA3
ENCODING 20387
SWIDTH 1000 0
DWIDTH 9 0
BBX 8 9 0 -1
BITMAP
C0
27
65
A7
A2
A7
A5
A7
A0
ENDCHAR
STARTCHAR uni4FA5
ENCODING 20389
SWIDTH 1000 0
DWIDTH 9 0
BBX 9 9 0 -1
BITMAP
8400
5F00
4400
7F80
D100
7F80
4A00
5200
5180
ENDCHAR
STARTCHAR uni4FA6
ENCODING 20390
SWIDTH 1000 0
DWIDTH 9 0
BBX 9 9 0 -1
BITMAP
C400
2780
6400
AF80
A880
AF80
A880
AF80
A500
ENDCHAR
STARTCHAR uni4FA7
ENCODING 20391
SWIDTH 1000 0
DWIDTH 9 0
BBX 9 9 0 -1
BITMAP
9C80
5480
5C80
5480
DD80
5480
5C80
4080
5500
ENDCHAR
STARTCHAR uni4FA8
ENCODING 20392
SWIDTH 1000 0
DWIDTH 9 0
BBX 9 9 0 -1
BITMAP
4200
9F00
8400
BB80
8E00
8A00
BF80
AA80
AE80
ENDCHAR
STARTCHAR uni4FA9
ENCODING 20393
SWIDTH 1000 0
DWIDTH 9 0
BBX 9 9 0 -1
BITMAP
8E00
5100
7F80
6A80
FF80
5100
5F00
5100
4E00
ENDCHAR
STARTCHAR uni4FAA
ENCODING 20394
SWIDTH 1000 0
DWIDTH 9 0
BBX 9 9 0 -1
BITMAP
8400
7F80
4A00
4400
D100
6E80
5100
5F00
5100
ENDCHAR
STARTCHAR uni4FAC
ENCODING 20396
SWIDTH 1000 0
DWIDTH 9 0
BBX 9 9 0 -1
BITMAP
5500
AA80
AE80
B180
9F00
A000
BF80
A900
AC80
ENDCHAR
STARTCHAR uni4FAD
ENCODING 20397
SWIDTH 1000 0
DWIDTH 9 0
BBX 9 9 0 -1
BITMAP
8400
5F00
4480
5F80
CE80
5580
5F00
4A00
5F80
ENDCHAR
STARTCHAR uni4FAE
ENCODING 20398
SWIDTH 1000 0
DWIDTH 9 0
BBX 9 9 0 -1
BITMAP
9500
4E00
4400
DF00
7580
4F00
5200
5400
5300
ENDCHAR
STARTCHAR uni4FAF
ENCODING 20399
SWIDTH 1000 0
DWIDTH 9 0
BBX 9 9 0 -1
BITMAP
FC00
2200
3F00
4400
4E00
4400
5F80
4A00
8A00
ENDCHAR
STARTCHAR uni4FB5
ENCODING 20405
SWIDTH 1000 0
DWIDTH 9 0
BBX 9 9 0 -1
BITMAP
5E00
8100
9F00
8500
BF80
A480
AE80
8200
9D00
ENDCHAR
STARTCHAR uni4FB8
ENCODING 20408
SWIDTH 1000 0
DWIDTH 9 0
BBX 9 9 0 -1
BITMAP
CF80
2000
6700
A880
A880
A700
A500
A500
AF80
ENDCHAR
STARTCHAR uni4FBF
ENCODING 20415
SWIDTH 1000 0
DWIDTH 9 0
BBX 9 9 0 -1
BITMAP
CF80
2700
6A80
AD80
A880
A300
A600
A100
AE80
ENDCHAR
STARTCHAR uni4FC2
ENCODING 20418
SWIDTH 1000 0
DWIDTH 9 0
BBX 9 9 0 -1
BITMAP
CF80
2200
6500
A700
A200
A500
A700
A200
AA80
ENDCHAR
STARTCHAR uni4FC3
ENCODING 20419
SWIDTH 1000 0
DWIDTH 9 0
BBX 9 9 0 -1
BITMAP
C700
2880
6880
A700
A280
AB80
AA00
A700
A080
ENDCHAR
STARTCHAR uni4FC4
ENCODING 20420
SWIDTH 1000 0
DWIDTH 9 0
BBX 9 9 0 -1
BITMAP
8500
5980
4900
5F80
C900
5D80
4B00
4900
5080
ENDCHAR
STARTCHAR uni4FC5
ENCODING 20421
SWIDTH 1000 0
DWIDTH 9 0
BBX 9 9 0 -1
BITMAP
CF00
2080
6E80
A280
AF00
A200
AA80
A200
AA80
ENDCHAR
STARTCHAR uni4FCA
ENCODING 20426
SWIDTH 1000 0
DWIDTH 9 0
BBX 9 9 0 -1
BITMAP
8400
4E00
5100
5F00
CA00
7180
5E00
4A00
5D80
ENDCHAR
STARTCHAR uni4FCE
ENCODING 20430
SWIDTH 1000 0
DWIDTH 9 0
BBX 9 9 0 -1
BITMAP
0F00
4900
4900
AF00
0900
4F00
4900
A900
1F80
ENDCHAR
STARTCHAR uni4FCF
ENCODING 20431
SWIDTH 1000 0
DWIDTH 9 0
BBX 9 9 0 -1
BITMAP
CA80
2A80
6200
A700
A880
AF80
A880
AF80
A880
ENDCHAR
STARTCHAR uni4FD0
ENCODING 20432
SWIDTH 1000 0
DWIDTH 9 0
BBX 9 9 0 -1
BITMAP
4880
9880
8A80
AA80
9C80
8980
9C80
AA80
AB00
ENDCHAR
STARTCHAR uni4FD1
ENCODING 20433
SWIDTH 1000 0
DWIDTH 9 0
BBX 9 9 0 -1
BITMAP
CF00
2280
6300
AB80
AA80
AF80
AA80
AF80
AA80
ENDCHAR
STARTCHAR uni4FD7
ENCODING 20439
SWIDTH 1000 0
DWIDTH 9 0
BBX 9 9 0 -1
BITMAP
C500
2D80
6000
A500
A500
A880
A700
A500
A700
ENDCHAR
STARTCHAR uni4FD8
ENCODING 20440
SWIDTH 1000 0
DWIDTH 9 0
BBX 9 9 0 -1
BITMAP
8F80
5500
4000
4F00
C900
4600
5280
4F00
4200
ENDCHAR
STARTCHAR uni4FDA
ENCODING 20442
SWIDTH 1000 0
DWIDTH 9 0
BBX 9 9 0 -1
BITMAP
CF80
2A80
6F80
AA80
A700
A200
AF80
A200
AF80
ENDCHAR
STARTCHAR uni4FDC
ENCODING 20444
SWIDTH 1000 0
DWIDTH 9 0
BBX 9 9 0 -1
BITMAP
8400
5F00
5500
5F00
D500
7F80
4400
4200
4C00
ENDCHAR
STARTCHAR uni4FDD
ENCODING 20445
SWIDTH 1000 0
DWIDTH 9 0
BBX 9 9 0 -1
BITMAP
C700
2880
6700
A200
AA80
A700
A200
AA80
AA80
ENDCHAR
STARTCHAR uni4FDE
ENCODING 20446
SWIDTH 1000 0
DWIDTH 9 0
BBX 9 9 0 -1
BITMAP
1C00
2200
DD80
3000
5500
7500
5500
7480
5200
ENDCHAR
STARTCHAR uni4FDF
ENCODING 20447
SWIDTH 1000 0
DWIDTH 9 0
BBX 9 9 0 -1
BITMAP
C200
2600
6500
A200
A700
AA80
A200
AF80
A500
ENDCHAR
STARTCHAR uni4FE1
ENCODING 20449
SWIDTH 1000 0
DWIDTH 9 0
BBX 9 9 0 -1
BITMAP
CF80
2500
6200
AA80
A700
A200
A700
A500
A700
ENDCHAR
STARTCHAR uni4FE3
ENCODING 20451
SWIDTH 1000 0
DWIDTH 9 0
BBX 9 9 0 -1
BITMAP
C380
2A80
6B80
A800
A600
A200
AF80
A200
AD80
ENDCHAR
STARTCHAR uni4FE6
ENCODING 20454
SWIDTH 1000 0
DWIDTH 9 0
BBX 9 9 0 -1
BITMAP
9500
4E00
5F00
4080
DC80
4A80
5E80
5480
4E80
ENDCHAR
STARTCHAR uni4FE8
ENCODING 20456
SWIDTH 1000 0
DWIDTH 9 0
BBX 9 9 0 -1
BITMAP
5F00
9500
BF80
A100
AE80
A580
BE80
AB80
AE80
ENDCHAR
STARTCHAR uni4FE9
ENCODING 20457
SWIDTH 1000 0
DWIDTH 9 0
BBX 9 9 0 -1
BITMAP
5F80
8400
9F00
A480
AD80
AD80
BF80
A480
A480
ENDCHAR
STARTCHAR uni4FEA
ENCODING 20458
SWIDTH 1000 0
DWIDTH 9 0
BBX 9 9 0 -1
BITMAP
9F80
4A00
5F00
4A80
DF80
5500
5780
5500
5280
ENDCHAR
STARTCHAR uni4FED
ENCODING 20461
SWIDTH 1000 0
DWIDTH 9 0
BBX 9 9 0 -1
BITMAP
C200
2D80
6000
AF80
AA80
A500
A000
A500
AA80
ENDCHAR
STARTCHAR uni4FEE
ENCODING 20462
SWIDTH 1000 0
DWIDTH 9 0
BBX 9 9 0 -1
BITMAP
9380
5200
5780
5080
D700
5080
5680
5080
5680
ENDCHAR
STARTCHAR uni4FEF
ENCODING 20463
SWIDTH 1000 0
DWIDTH 9 0
BBX 9 9 0 -1
BITMAP
5780
D500
5780
9480
6780
8480
B300
A500
B580
ENDCHAR
STARTCHAR uni4FF1
ENCODING 20465
SWIDTH 1000 0
DWIDTH 9 0
BBX 9 9 0 -1
BITMAP
4E00
8A00
8E00
9B00
AE80
BB80
AE80
B180
A080
ENDCHAR
STARTCHAR uni4FF3
ENCODING 20467
SWIDTH 1000 0
DWIDTH 9 0
BBX 9 9 0 -1
BITMAP
C500
2500
6D80
A500
AD80
A500
AD80
A500
A880
ENDCHAR
STARTCHAR uni4FF6
ENCODING 20470
SWIDTH 1000 0
DWIDTH 9 0
BBX 9 9 0 -1
BITMAP
9000
5D00
5080
5180
7E80
C980
6A80
6A80
4880
ENDCHAR
STARTCHAR uni4FF8
ENCODING 20472
SWIDTH 1000 0
DWIDTH 9 0
BBX 9 9 0 -1
BITMAP
5500
8E00
8400
BF80
9500
AE80
B580
AE80
A480
ENDCHAR
STARTCHAR uni4FFA
ENCODING 20474
SWIDTH 1000 0
DWIDTH 9 0
BBX 9 9 0 -1
BITMAP
8400
5F00
4400
7B80
DF00
5500
5F00
4400
4300
ENDCHAR
STARTCHAR uni4FFB
ENCODING 20475
SWIDTH 1000 0
DWIDTH 9 0
BBX 9 9 0 -1
BITMAP
4A00
BB80
8E00
B900
AA80
BE80
AA80
BE80
AA80
ENDCHAR
STARTCHAR uni4FFE
ENCODING 20478
SWIDTH 1000 0
DWIDTH 9 0
BBX 9 9 0 -1
BITMAP
C700
2880
6F80
AA80
AE00
A480
A500
A580
A500
ENDCHAR
STARTCHAR uni5002
ENCODING 20482
SWIDTH 1000 0
DWIDTH 9 0
BBX 9 9 0 -1
BITMAP
9200
4900
5B00
4900
C900
5F80
4900
5F80
4900
ENDCHAR
STARTCHAR uni500B
ENCODING 20491
SWIDTH 1000 0
DWIDTH 9 0
BBX 9 9 0 -1
BITMAP
CF80
2A80
6F80
AA80
AF80
AD80
AF80
A880
A700
ENDCHAR
STARTCHAR uni500C
ENCODING 20492
SWIDTH 1000 0
DWIDTH 9 0
BBX 9 9 0 -1
BITMAP
4400
9F00
A480
A880
AE80
AA80
AC80
AA80
8E00
ENDCHAR
STARTCHAR uni500D
ENCODING 20493
SWIDTH 1000 0
DWIDTH 9 0
BBX 9 9 0 -1
BITMAP
4400
BF80
8A00
8E00
8400
9F00
AA80
AE80
A080
ENDCHAR
STARTCHAR uni500F
ENCODING 20495
SWIDTH 1000 0
DWIDTH 9 0
BBX 9 9 0 -1
BITMAP
9380
5200
5780
5080
D700
4A80
5E80
4C80
5680
ENDCHAR
STARTCHAR uni5012
ENCODING 20498
SWIDTH 1000 0
DWIDTH 9 0
BBX 9 9 0 -1
BITMAP
9480
4880
5480
5480
DD80
4880
5C80
4880
5D00
ENDCHAR
STARTCHAR uni5014
ENCODING 20500
SWIDTH 1000 0
DWIDTH 9 0
BBX 9 9 0 -1
BITMAP
9F80
4080
4F00
5200
DA80
5B00
5600
5880
5780
ENDCHAR
STARTCHAR uni5018
ENCODING 20504
SWIDTH 1000 0
DWIDTH 9 0
BBX 9 9 0 -1
BITMAP
CA80
2A80
6200
AF80
A880
AF80
AD80
AF80
A880
ENDCHAR
STARTCHAR uni5019
ENCODING 20505
SWIDTH 1000 0
DWIDTH 9 0
BBX 9 9 0 -1
BITMAP
9E00
4900
5F80
5200
D700
5200
5F80
5500
5500
ENDCHAR
STARTCHAR uni501A
ENCODING 20506
SWIDTH 1000 0
DWIDTH 9 0
BBX 9 9 0 -1
BITMAP
8400
5F00
4A00
5F80
C100
5D00
5500
5D00
4200
ENDCHAR
STARTCHAR uni501C
ENCODING 20508
SWIDTH 1000 0
DWIDTH 9 0
BBX 9 9 0 -1
BITMAP
C880
2F80
6A80
AF80
AA80
AF80
A880
AA80
A880
ENDCHAR
STARTCHAR uni501D
ENCODING 20509
SWIDTH 1000 0
DWIDTH 9 0
BBX 9 9 0 -1
BITMAP
A800
F900
2100
F900
8900
7100
0280
F800
2000
ENDCHAR
STARTCHAR uni501F
ENCODING 20511
SWIDTH 1000 0
DWIDTH 9 0
BBX 9 9 0 -1
BITMAP
C500
2D80
6200
AD80
A700
A880
AF80
A880
A700
ENDCHAR
STARTCHAR uni5021
ENCODING 20513
SWIDTH 1000 0
DWIDTH 9 0
BBX 9 9 0 -1
BITMAP
8600
4900
4F00
4900
D780
5080
5F80
5080
4F00
ENDCHAR
STARTCHAR uni5025
ENCODING 20517
SWIDTH 1000 0
DWIDTH 9 0
BBX 9 9 0 -1
BITMAP
4400
9F00
AA80
BB80
A080
AE80
A480
AE80
A080
ENDCHAR
STARTCHAR uni5026
ENCODING 20518
SWIDTH 1000 0
DWIDTH 9 0
BBX 9 9 0 -1
BITMAP
5500
BF80
8400
9100
AE80
BB80
AC80
A880
A680
ENDCHAR
STARTCHAR uni5028
ENCODING 20520
SWIDTH 1000 0
DWIDTH 9 0
BBX 9 9 0 -1
BITMAP
CF80
2080
6780
A900
AB80
A900
AB80
AA80
AB80
ENDCHAR
STARTCHAR uni5029
ENCODING 20521
SWIDTH 1000 0
DWIDTH 9 0
BBX 9 9 0 -1
BITMAP
CA80
2700
6200
AF80
A500
A700
A500
A700
A500
ENDCHAR
STARTCHAR uni502A
ENCODING 20522
SWIDTH 1000 0
DWIDTH 9 0
BBX 9 9 0 -1
BITMAP
C500
2880
6D80
A880
AD80
A500
A880
A900
A880
ENDCHAR
STARTCHAR uni502C
ENCODING 20524
SWIDTH 1000 0
DWIDTH 9 0
BBX 9 9 0 -1
BITMAP
4F00
9200
8E00
9100
9F00
9100
AE80
A480
9500
ENDCHAR
STARTCHAR uni502D
ENCODING 20525
SWIDTH 1000 0
DWIDTH 9 0
BBX 9 9 0 -1
BITMAP
C300
2A80
6700
AA80
A200
AF80
AA80
AF00
A980
ENDCHAR
STARTCHAR uni502E
ENCODING 20526
SWIDTH 1000 0
DWIDTH 9 0
BBX 9 9 0 -1
BITMAP
C700
2A80
6F80
AA80
A700
A200
AA80
A700
AA80
ENDCHAR
STARTCHAR uni503A
ENCODING 20538
SWIDTH 1000 0
DWIDTH 9 0
BBX 9 9 0 -1
BITMAP
5500
8E00
A480
BF80
AA80
8E00
8A00
8E00
9100
ENDCHAR
STARTCHAR uni503C
ENCODING 20540
SWIDTH 1000 0
DWIDTH 9 0
BBX 9 9 0 -1
BITMAP
8200
4F80
4700
5500
D700
5500
5700
5000
4F80
ENDCHAR
STARTCHAR uni503E
ENCODING 20542
SWIDTH 1000 0
DWIDTH 9 0
BBX 9 9 0 -1
BITMAP
8780
5500
5780
5C80
D780
5480
5300
4D00
4580
ENDCHAR
STARTCHAR uni5043
ENCODING 20547
SWIDTH 1000 0
DWIDTH 9 0
BBX 9 9 0 -1
BITMAP
9F80
5500
5700
5200
DF80
5A80
5700
5480
5F80
ENDCHAR
STARTCHAR uni5047
ENCODING 20551
SWIDTH 1000 0
DWIDTH 9 0
BBX 9 9 0 -1
BITMAP
9B80
5080
5B80
5000
DB80
5080
7A80
5100
5280
ENDCHAR
STARTCHAR uni5048
ENCODING 20552
SWIDTH 1000 0
DWIDTH 9 0
BBX 9 9 0 -1
BITMAP
CF00
2900
6F00
A900
AF00
B480
AE80
A880
AD00
ENDCHAR
STARTCHAR uni504C
ENCODING 20556
SWIDTH 1000 0
DWIDTH 9 0
BBX 9 9 0 -1
BITMAP
5500
8E00
A480
B580
A480
9F00
BA00
A900
B880
ENDCHAR
STARTCHAR uni504E
ENCODING 20558
SWIDTH 1000 0
DWIDTH 9 0
BBX 9 9 0 -1
BITMAP
8E00
5500
5F00
5500
CE00
4100
5480
5480
4E80
ENDCHAR
STARTCHAR uni504F
ENCODING 20559
SWIDTH 1000 0
DWIDTH 9 0
BBX 9 9 0 -1
BITMAP
5F80
A000
BF80
A080
BF00
A000
AA80
BF80
AA80
ENDCHAR
STARTCHAR uni5055
ENCODING 20565
SWIDTH 1000 0
DWIDTH 9 0
BBX 9 9 0 -1
BITMAP
8900
5200
5B80
5200
CF00
5080
5F80
5080
4F00
ENDCHAR
STARTCHAR uni505A
ENCODING 20570
SWIDTH 1000 0
DWIDTH 9 0
BBX 9 9 0 -1
BITMAP
8980
4900
5D80
4880
C980
5C80
5580
5C80
4080
ENDCHAR
STARTCHAR uni505C
ENCODING 20572
SWIDTH 1000 0
DWIDTH 9 0
BBX 9 9 0 -1
BITMAP
C200
2F80
6500
AF80
A880
AA80
AF80
AA80
A200
ENDCHAR
STARTCHAR uni5065
ENCODING 20581
SWIDTH 1000 0
DWIDTH 9 0
BBX 9 9 0 -1
BITMAP
8200
5700
5280
C780
5200
5700
5A80
5200
4F80
ENDCHAR
STARTCHAR uni506C
ENCODING 20588
SWIDTH 1000 0
DWIDTH 9 0
BBX 9 9 0 -1
BITMAP
8400
4F00
5580
5A80
CF00
4000
4900
5980
4700
ENDCHAR
STARTCHAR uni5076
ENCODING 20598
SWIDTH 1000 0
DWIDTH 9 0
BBX 9 9 0 -1
BITMAP
8E00
5500
5F00
5500
CE00
7400
5F80
7480
5680
ENDCHAR
STARTCHAR uni5077
ENCODING 20599
SWIDTH 1000 0
DWIDTH 9 0
BBX 9 9 0 -1
BITMAP
2700
2880
F700
AC00
FA80
AE80
AA00
2E80
2A80
ENDCHAR
STARTCHAR uni507B
ENCODING 20603
SWIDTH 1000 0
DWIDTH 9 0
BBX 9 9 0 -1
BITMAP
9F00
5500
7F80
5500
DF00
4E00
5500
5E00
5380
ENDCHAR
STARTCHAR uni507E
ENCODING 20606
SWIDTH 1000 0
DWIDTH 9 0
BBX 9 9 0 -1
BITMAP
9500
4E00
5500
7B80
D100
4E00
4A00
4E00
5100
ENDCHAR
STARTCHAR uni507F
ENCODING 20607
SWIDTH 1000 0
DWIDTH 9 0
BBX 9 9 0 -1
BITMAP
5500
BF80
AA80
AE80
9100
9F00
9100
9F00
8A00
ENDCHAR
STARTCHAR uni5080
ENCODING 20608
SWIDTH 1000 0
DWIDTH 9 0
BBX 9 9 0 -1
BITMAP
C700
2A80
6F80
AA80
A700
A600
AA80
AA00
A980
ENDCHAR
STARTCHAR uni5085
ENCODING 20613
SWIDTH 1000 0
DWIDTH 9 0
BBX 9 9 0 -1
BITMAP
8500
7F80
5500
5F00
D500
5E00
4100
5F00
4880
ENDCHAR
STARTCHAR uni5088
ENCODING 20616
SWIDTH 1000 0
DWIDTH 9 0
BBX 9 9 0 -1
BITMAP
C380
2700
6A80
AD80
AA80
A700
AA80
A700
AA80
ENDCHAR
STARTCHAR uni508D
ENCODING 20621
SWIDTH 1000 0
DWIDTH 9 0
BBX 9 9 0 -1
BITMAP
CF00
2880
6E80
A880
A200
AF80
A300
A480
A900
ENDCHAR
STARTCHAR uni50A3
ENCODING 20643
SWIDTH 1000 0
DWIDTH 9 0
BBX 9 9 0 -1
BITMAP
8400
5F00
4400
5B00
D100
6480
5500
4400
5500
ENDCHAR
STARTCHAR uni50A5
ENCODING 20645
SWIDTH 1000 0
DWIDTH 9 0
BBX 9 9 0 -1
BITMAP
B580
5F00
6080
6E80
D500
5F00
4400
5F00
6A80
ENDCHAR
STARTCHAR uni50A7
ENCODING 20647
SWIDTH 1000 0
DWIDTH 9 0
BBX 9 9 0 -1
BITMAP
8400
5F80
5280
4E80
D500
5700
4500
4700
4880
ENDCHAR
STARTCHAR uni50A8
ENCODING 20648
SWIDTH 1000 0
DWIDTH 9 0
BBX 9 9 0 -1
BITMAP
4500
B980
AB00
9180
BB00
9680
BB80
AA80
BB80
ENDCHAR
STARTCHAR uni50A9
ENCODING 20649
SWIDTH 1000 0
DWIDTH 9 0
BBX 9 9 0 -1
BITMAP
AB00
7D00
5780
7D00
D780
7D00
5780
6D00
4780
ENDCHAR
STARTCHAR uni50AC
ENCODING 20652
SWIDTH 1000 0
DWIDTH 9 0
BBX 9 9 0 -1
BITMAP
CA80
2F80
6600
A900
AF80
A900
AF80
A900
AF80
ENDCHAR
STARTCHAR uni50B2
ENCODING 20658
SWIDTH 1000 0
DWIDTH 9 0
BBX 9 9 0 -1
BITMAP
8980
5D00
4980
5C80
C980
7E80
5580
5480
6C80
ENDCHAR
STARTCHAR uni50BA
ENCODING 20666
SWIDTH 1000 0
DWIDTH 9 0
BBX 9 9 0 -1
BITMAP
B900
5480
7D80
4080
DD80
4080
5E80
4400
5500
ENDCHAR
STARTCHAR uni50BB
ENCODING 20667
SWIDTH 1000 0
DWIDTH 9 0
BBX 9 9 0 -1
BITMAP
8E00
5500
5B00
D500
4E00
7180
5E00
4A00
5D00
ENDCHAR
STARTCHAR uni50CA
ENCODING 20682
SWIDTH 1000 0
DWIDTH 9 0
BBX 9 9 0 -1
BITMAP
5500
AE80
BB80
AE80
9100
AE80
B780
A880
AE80
ENDCHAR
STARTCHAR uni50CF
ENCODING 20687
SWIDTH 1000 0
DWIDTH 9 0
BBX 9 9 0 -1
BITMAP
CE00
2500
6F80
AA80
AF00
A400
AB00
A280
AA80
ENDCHAR
STARTCHAR uni50D6
ENCODING 20694
SWIDTH 1000 0
DWIDTH 9 0
BBX 9 9 0 -1
BITMAP
9500
4E00
7F80
5100
DF00
4A00
7F80
5100
5F00
ENDCHAR
STARTCHAR uni50DA
ENCODING 20698
SWIDTH 1000 0
DWIDTH 9 0
BBX 9 9 0 -1
BITMAP
9500
4E00
7B80
5100
DF00
5100
4E00
6480
4A00
ENDCHAR
STARTCHAR uni50E6
ENCODING 20710
SWIDTH 1000 0
DWIDTH 9 0
BBX 9 9 0 -1
BITMAP
8900
5C80
4280
5D80
D700
5D00
4A80
6A80
4A80
ENDCHAR
STARTCHAR uni50E7
ENCODING 20711
SWIDTH 1000 0
DWIDTH 9 0
BBX 9 9 0 -1
BITMAP
5B00
8000
BF80
AA80
BF80
9100
9F00
9100
8E00
ENDCHAR
STARTCHAR uni50EC
ENCODING 20716
SWIDTH 1000 0
DWIDTH 9 0
BBX 9 9 0 -1
BITMAP
CF80
3A00
6F80
AA00
AF80
A200
AA80
A200
AD80
ENDCHAR
STARTCHAR uni50ED
ENCODING 20717
SWIDTH 1000 0
DWIDTH 9 0
BBX 9 9 0 -1
BITMAP
BB80
7300
5980
6A80
DF00
5100
5F00
5100
4E00
ENDCHAR
STARTCHAR uni50EE
ENCODING 20718
SWIDTH 1000 0
DWIDTH 9 0
BBX 9 9 0 -1
BITMAP
9F00
4A00
7F80
5500
DF00
5500
6E80
4400
5F00
ENDCHAR
STARTCHAR uni50F3
ENCODING 20723
SWIDTH 1000 0
DWIDTH 9 0
BBX 9 9 0 -1
BITMAP
8780
4E00
5900
5300
CE00
5500
7F80
4400
5500
ENDCHAR
STARTCHAR uni50F5
ENCODING 20725
SWIDTH 1000 0
DWIDTH 9 0
BBX 9 9 0 -1
BITMAP
BF80
5500
5F00
5500
7F80
D500
5F00
5500
7F80
ENDCHAR
STARTCHAR uni50FB
ENCODING 20731
SWIDTH 1000 0
DWIDTH 9 0
BBX 9 9 0 -1
BITMAP
4380
B800
AB80
BA80
A100
FB80
A900
BB80
8100
ENDCHAR
STARTCHAR uni5106
ENCODING 20742
SWIDTH 1000 0
DWIDTH 9 0
BBX 9 9 0 -1
BITMAP
9580
7F00
4900
4580
DC80
5580
5C80
4580
4880
ENDCHAR
STARTCHAR uni5107
ENCODING 20743
SWIDTH 1000 0
DWIDTH 9 0
BBX 9 9 0 -1
BITMAP
9F00
6A80
5F00
4400
7F80
D100
4E00
7B80
4F00
ENDCHAR
STARTCHAR uni510B
ENCODING 20747
SWIDTH 1000 0
DWIDTH 9 0
BBX 9 9 0 -1
BITMAP
9E00
4A00
5F80
5500
DF80
5200
5F80
5500
5700
ENDCHAR
STARTCHAR uni5112
ENCODING 20754
SWIDTH 1000 0
DWIDTH 9 0
BBX 9 9 0 -1
BITMAP
CF80
2200
6F80
AA80
A000
A700
A000
AF80
AA80
ENDCHAR
STARTCHAR uni5121
ENCODING 20769
SWIDTH 1000 0
DWIDTH 9 0
BBX 9 9 0 -1
BITMAP
5F00
9500
9F00
9500
BF80
AA80
BF80
AA80
BF80
ENDCHAR
STARTCHAR uni513F
ENCODING 20799
SWIDTH 1000 0
DWIDTH 9 0
BBX 8 9 1 -1
BITMAP
10
7C
82
82
9E
90
90
88
87
ENDCHAR
STARTCHAR uni5140
ENCODING 20800
SWIDTH 1000 0
DWIDTH 9 0
BBX 9 9 0 -1
BITMAP
FF80
0800
3600
4100
4100
4E00
4800
4400
4380
ENDCHAR
STARTCHAR uni5141
ENCODING 20801
SWIDTH 1000 0
DWIDTH 9 0
BBX 8 9 1 -1
BITMAP
60
20
4C
82
7C
28
44
88
87
ENDCHAR
STARTCHAR uni5143
ENCODING 20803
SWIDTH 1000 0
DWIDTH 9 0
BBX 8 9 1 -1
BITMAP
FE
00
FE
10
6C
82
8C
88
87
ENDCHAR
STARTCHAR uni5144
ENCODING 20804
SWIDTH 1000 0
DWIDTH 9 0
BBX 8 9 1 -1
BITMAP
FE
82
82
7C
10
6C
84
88
87
ENDCHAR
STARTCHAR uni5145
ENCODING 20805
SWIDTH 1000 0
DWIDTH 9 0
BBX 9 9 0 -1
BITMAP
0800
FF80
1400
2200
3E00
1400
2200
2400
2300
ENDCHAR
STARTCHAR uni5146
ENCODING 20806
SWIDTH 1000 0
DWIDTH 9 0
BBX 9 9 0 -1
BITMAP
1100
F100
1100
E600
0800
3400
4780
4400
4380
ENDCHAR
STARTCHAR uni5147
ENCODING 20807
SWIDTH 1000 0
DWIDTH 9 0
BBX 8 9 1 -1
BITMAP
AA
92
AA
C6
7C
28
44
88
87
ENDCHAR
STARTCHAR uni5165
ENCODING 20837
SWIDTH 1000 0
DWIDTH 9 0
BBX 7 9 1 -1
BITMAP
10
10
10
10
10
10
28
44
82
ENDCHAR
STARTCHAR uni5175
ENCODING 20853
SWIDTH 1000 0
DWIDTH 9 0
BBX 9 9 0 -1
BITMAP
0800
1200
1400
5500
9480
D580
9480
C580
8480
ENDCHAR
STARTCHAR uni5176
ENCODING 20854
SWIDTH 1000 0
DWIDTH 9 0
BBX 9 9 0 -1
BITMAP
4100
FF80
5500
6B00
5500
3E00
0000
FF80
2200
ENDCHAR
STARTCHAR uni5177
ENCODING 20855
SWIDTH 1000 0
DWIDTH 9 0
BBX 9 9 0 -1
BITMAP
1C00
2200
3E00
6300
BE80
E380
9C80
C180
8080
ENDCHAR
STARTCHAR uni5178
ENCODING 20856
SWIDTH 1000 0
DWIDTH 9 0
BBX 9 9 0 -1
BITMAP
5500
7F00
5500
7F00
5500
0000
FF80
2200
4100
ENDCHAR
STARTCHAR uni5179
ENCODING 20857
SWIDTH 1000 0
DWIDTH 9 0
BBX 9 9 0 -1
BITMAP
AA80
AA80
7700
2200
5500
7700
2200
5500
7700
ENDCHAR
STARTCHAR uni5BFF
ENCODING 23551
SWIDTH 1000 0
DWIDTH 9 0
BBX 9 9 0 -1
BITMAP
2A00
1C00
FF00
5480
E480
3880
4E80
5480
5E80
ENDCHAR
STARTCHAR uni723F
ENCODING 29247
SWIDTH 1000 0
DWIDTH 9 0
BBX 4 9 2 -1
BITMAP
10
90
F0
90
10
90
F0
90
10
ENDCHAR
STARTCHAR uni8846
ENCODING 34886
SWIDTH 1000 0
DWIDTH 9 0
BBX 9 9 0 -1
BITMAP
7F00
9480
7F00
0000
C900
2480
6D80
B680
A480
ENDCHAR
STARTCHAR uni8C50
ENCODING 35920
SWIDTH 1000 0
DWIDTH 9 0
BBX 9 9 0 -1
BITMAP
AA80
DD80
AA80
5500
FF80
2200
3E00
1400
FF80
ENDCHAR
ENDFONT
